<?xml version="1.0" encoding="utf-8"?>
<!-- Generator: Adobe Illustrator 28.0.0, SVG Export Plug-In . SVG Version: 6.00 Build 0)  -->
<svg version="1.1" id="Layer_1" xmlns="http://www.w3.org/2000/svg" xmlns:xlink="http://www.w3.org/1999/xlink" x="0px" y="0px"
	 viewBox="0 0 18 18" style="enable-background:new 0 0 18 18;" xml:space="preserve">
<style type="text/css">
	.st0{fill-opacity:0;}
	.st1{fill:#0083C4;}
</style>
<g>
	<rect class="st0" width="18" height="18"/>
	<path class="st1" d="M12.7,0C17.6,0,18,0.4,18,5.3v7.4c0,4.9-0.4,5.3-5.3,5.3h-0.9v-6.6h2.3l0.4-2.6h-2.7c0,0,0-1.5,0-1.9
		c0-0.7,0.6-1.1,1.2-1.1c0.5,0,1.6,0,1.6,0V3.4c0,0-1-0.1-2-0.1c-0.8,0-1.8,0.2-2.5,1C9.3,5.1,9.2,6.2,9.2,7.6c0,0.4,0,1.2,0,1.2
		H6.9v2.6h2.3V18H5.3C0.4,18,0,17.6,0,12.7V5.3C0,0.4,0.4,0,5.3,0C5.3,0,12.7,0,12.7,0z"/>
</g>
</svg>
