<?xml version="1.0" encoding="utf-8"?>
<!-- Generator: Adobe Illustrator 28.0.0, SVG Export Plug-In . SVG Version: 6.00 Build 0)  -->
<svg version="1.1" id="Layer_1" xmlns="http://www.w3.org/2000/svg" xmlns:xlink="http://www.w3.org/1999/xlink" x="0px" y="0px"
	 viewBox="0 0 18 18" style="enable-background:new 0 0 18 18;" xml:space="preserve">
<style type="text/css">
	.st0{fill:url(#SVGID_1_);fill-opacity:0;}
	.st1{fill:#0083C4;}
</style>
<g>
	
		<linearGradient id="SVGID_1_" gradientUnits="userSpaceOnUse" x1="-2.487474e-03" y1="1.9925" x2="18.0025" y2="19.9975" gradientTransform="matrix(1 0 0 -1 0 20)">
		<stop  offset="1.240079e-03" style="stop-color:#EE4B61"/>
		<stop  offset="0.5424" style="stop-color:#5C54CA"/>
		<stop  offset="0.9987" style="stop-color:#B030BA"/>
	</linearGradient>
	<rect class="st0" width="18" height="18"/>
	<g>
		<g>
			<path class="st1" d="M9,0c8.3,0,9,0.6,9,9v0.1c0,8.3-0.6,8.9-8.9,8.9H8.9C0.6,18,0,17.4,0,9.1V8.9C0,0.6,0.6,0,9,0L9,0z M9,13.6
				c2.5,0,4.6-2.1,4.5-4.6S11.5,4.4,9,4.4C6.5,4.4,4.4,6.5,4.4,9C4.4,11.5,6.5,13.6,9,13.6z M14.4,4.6c0.5,0,0.9-0.4,0.9-0.9
				s-0.4-0.9-0.9-0.9s-0.9,0.4-0.9,0.9C13.4,4.2,13.9,4.6,14.4,4.6z M9,6c1.6,0,3,1.3,3,2.9s-1.3,3-2.9,3S6,10.6,6,9S7.4,6.1,9,6z"
				/>
		</g>
	</g>
</g>
</svg>
