<?xml version="1.0" encoding="utf-8"?>
<!-- Generator: Adobe Illustrator 28.0.0, SVG Export Plug-In . SVG Version: 6.00 Build 0)  -->
<svg version="1.1" id="Layer_1" xmlns="http://www.w3.org/2000/svg" xmlns:xlink="http://www.w3.org/1999/xlink" x="0px" y="0px"
	 viewBox="0 0 18 18" style="enable-background:new 0 0 18 18;" xml:space="preserve">
<style type="text/css">
	.st0{fill:#0083C4;fill-opacity:0;}
	.st1{fill:#0083C4;}
</style>
<g>
	<rect class="st0" width="18" height="18"/>
	<path class="st1" d="M12.8,0C17.6,0,18,0.4,18,5.2v7.6c0,4.8-0.4,5.2-5.2,5.2H5.2C0.4,18,0,17.6,0,12.8V5.2C0,0.4,0.4,0,5.2,0
		C5.2,0,12.8,0,12.8,0z M5.9,13.9V6.6H3.6v7.3H5.9z M4.7,5.6c0.7,0,1.3-0.6,1.3-1.3c0-0.7-0.6-1.3-1.3-1.3C4,2.9,3.4,3.5,3.4,4.3
		S4,5.6,4.7,5.6z M14.4,13.9v-4c0-2-0.4-3.5-2.7-3.5c-1.1,0-1.8,0.6-2.2,1.2h0v-1H7.3v7.3h2.3v-3.6c0-1,0.2-1.9,1.4-1.9
		c1.2,0,1.2,1.1,1.2,1.9v3.6H14.4z"/>
</g>
</svg>
