<?xml version="1.0" encoding="UTF-8"?>
<!--Generator: Apple Native CoreSVG 175.5-->
<!DOCTYPE svg
PUBLIC "-//W3C//DTD SVG 1.1//EN"
       "http://www.w3.org/Graphics/SVG/1.1/DTD/svg11.dtd">
<svg version="1.1" xmlns="http://www.w3.org/2000/svg" xmlns:xlink="http://www.w3.org/1999/xlink" width="17.9981" height="18.0106">
 <g>
  <rect height="18.0106" opacity="0" width="17.9981" x="0" y="0"/>
  <path d="M12.8084 4.64703e-09C17.6215 4.64703e-09 17.9981 0.376654 17.9981 5.18969L17.9981 12.8133C17.9981 17.6218 17.6218 17.9981 12.8133 17.9981L5.18481 17.9981C0.376327 17.9981 0 17.6218 0 12.8133L0 5.18481C0 0.376302 0.376327 0 5.18481 0L12.8084 0ZM5.86223 13.9486L5.86223 6.6269L3.58676 6.6269L3.58676 13.9486L5.86223 13.9486ZM4.7249 5.57965C5.45618 5.57965 6.05094 4.98489 6.05094 4.25284C6.05094 3.52156 5.45618 2.92679 4.7249 2.92679C3.99207 2.92679 3.39808 3.52079 3.39808 4.25284C3.39808 4.98489 3.9913 5.57965 4.7249 5.57965ZM14.3985 13.9486L14.3985 9.93292C14.3985 7.96135 13.9727 6.44487 11.6687 6.44487C10.5618 6.44487 9.81978 7.05191 9.51586 7.62735L9.48501 7.62735L9.48501 6.6269L7.30209 6.6269L7.30209 13.9486L9.57603 13.9486L9.57603 10.3263C9.57603 9.37135 9.75805 8.44651 10.9421 8.44651C12.1092 8.44651 12.1246 9.53874 12.1246 10.388L12.1246 13.9486L14.3985 13.9486Z" fill="#0a84ff"/>
 </g>
</svg>
