<?xml version="1.0" encoding="utf-8"?>
<!-- Generator: Adobe Illustrator 28.0.0, SVG Export Plug-In . SVG Version: 6.00 Build 0)  -->
<svg version="1.1" id="Layer_1" xmlns="http://www.w3.org/2000/svg" xmlns:xlink="http://www.w3.org/1999/xlink" x="0px" y="0px"
	 viewBox="0 0 21.3 17.9" style="enable-background:new 0 0 21.3 17.9;" xml:space="preserve">
<style type="text/css">
	.st0{fill:#FFFFFF;fill-opacity:0;}
	.st1{fill:#FFFFFF;fill-opacity:0.85;}
</style>
<g>
	<rect x="1.6" y="1" class="st0" width="18.2" height="15.2"/>
	<path class="st1" d="M10.6,4.6c1,0,1.8-0.8,1.8-1.8S11.6,1,10.6,1C9.4,1,8.8,1.7,8.8,2.8C8.8,3.8,9.4,4.6,10.6,4.6z M2.7,12.3
		l4.1,0.3c0.8,0,1,0.2,1.6,0.3l5.1,1.5l4.6,1.6c0.3,0.2,1,0,1.1-0.5c0.2-0.5,0-1-0.5-1.1l-4.6-1.6c0,0-0.2-0.2-0.3-0.2l-3.6-1.3
		c0.5-1,1.1-2.3,1.3-3.9c0-0.2,0.2-0.3,0.3-0.3h6.1c0.5,0,0.8-0.3,0.8-0.8s-0.3-0.8-0.8-0.8h-6.7c-1.1,0-1.1,0-2.5-0.3L2.7,3.3
		c-0.5,0-1,0.2-1.1,0.7s0.2,1,0.7,1l5.9,1.6c0.2,0,0.3,0.2,0.2,0.3C8.1,8.6,7.5,9.9,7,10.5H3.7V7.3c0-0.5-0.3-0.8-0.8-0.8
		S2.1,6.8,2.1,7.3v4.3C2.1,12,2.2,12.2,2.7,12.3z"/>
</g>
</svg>
