<?xml version="1.0" encoding="UTF-8"?>
<svg xmlns="http://www.w3.org/2000/svg" viewBox="0 0 467.42 237.83">
  <defs>
    <style>
      .cls-1 {
        fill: #ffc60a;
        mix-blend-mode: multiply;
      }

      .cls-1, .cls-2, .cls-3, .cls-4, .cls-5, .cls-6, .cls-7, .cls-8, .cls-9, .cls-10 {
        stroke-width: 0px;
      }

      .cls-2 {
        fill: #ef3a4c;
        mix-blend-mode: soft-light;
      }

      .cls-11 {
        isolation: isolate;
      }

      .cls-3 {
        fill: #f99d1c;
      }

      .cls-4 {
        fill: #f99c24;
      }

      .cls-5 {
        fill: #1b51a3;
      }

      .cls-6 {
        fill: #c72035;
      }

      .cls-7 {
        fill: #c12033;
      }

      .cls-8 {
        fill: #ef4050;
      }

      .cls-9 {
        fill: #ffc60b;
      }

      .cls-10 {
        fill: #0083ca;
      }
    </style>
  </defs>
  <g class="cls-11">
    <g id="Layer_2" data-name="Layer 2">
      <g id="Layer_1-2" data-name="Layer 1">
        <g>
          <circle class="cls-10" cx="39.13" cy="115.43" r="12.45"/>
          <path class="cls-4" d="m99.15,84.91c0-1.77-.03-3.49-.08-5.15-.15,1.56-.27,3.1-.36,4.59-.03.43-.01.86.02,1.28h.45c-.02-.23-.04-.47-.04-.71Z"/>
          <g>
            <path class="cls-5" d="m29.92,186.41c0-.46-.03-.93-.1-1.4-.05-.33-4.36-27.66-7.78-52.89l-1.93-14.88-1.36-15.07c-.45-4.95-4.82-8.58-9.77-8.15-4.95.45-8.6,4.82-8.15,9.77l1.38,15.25.03.29c.59,4.8,1.26,9.94,1.97,15.16v.02s0,0,0,0c3.01,22.21,6.69,45.97,7.62,51.9h18.09Z"/>
            <path class="cls-10" d="m53.38,0c-9.87.25-24.06,2.2-35.39,14.71C1.7,32.74-3.45,66.91,2.23,119.19l1.31,10.08,15.7-20.97c-2.6-30.23-2.01-65.9,12.1-81.51,5.09-5.62,10.96-7.71,17.47-8.44L62.02.69C60.96.25,55.3-.04,53.38,0Z"/>
          </g>
          <circle class="cls-8" cx="197.64" cy="57.53" r="12.45"/>
          <g>
            <path class="cls-3" d="m128.23,19.1c-7.53,6.26-13.56,13.25-17.87,21.09,3.94,10.62,6.77,25.08,6.77,44.73,0,.24-.02.47-.04.71h.45s.01-.09.02-.14c2.47-40.95,22.66-53.73,33.42-57.66l9.33-20.73c-8.23.45-21.02,2.81-32.08,12.01Z"/>
            <path class="cls-9" d="m91.98,14.49l-10.82,14.45c1.25.7,4.76,3.07,8.4,9.17,4.07,6.83,8.87,19.49,9.52,41.64,1.15-12.32,4.21-26.68,11.29-39.57-5.54-14.92-13.26-22.27-18.38-25.7Z"/>
            <path class="cls-4" d="m110.36,40.19c-7.08,12.89-10.14,27.25-11.29,39.57.05,1.67.08,3.38.08,5.15,0,.24.02.47.04.71h17.92c.02-.24.04-.47.04-.71,0-19.65-2.84-34.1-6.77-44.73Z"/>
            <path class="cls-1" d="m110.36,40.19c-7.08,12.89-10.14,27.25-11.29,39.57.05,1.67.08,3.38.08,5.15,0,.24.02.47.04.71h17.92c.02-.24.04-.47.04-.71,0-19.65-2.84-34.1-6.77-44.73Z"/>
          </g>
          <g>
            <path class="cls-6" d="m230.31,133.41c-7.37,33.43-17.32,74.02-27.95,104.39,0,.01.01.01.02.03h19.93c16.5-49.48,30.67-118.62,36.4-148.3-6.71,30.12-18.76,40.61-28.4,43.88Z"/>
            <path class="cls-7" d="m244.45,82.88c-.67.61-1.42,1.34-2.13,2.04.85-.83,1.69-1.62,2.53-2.38-.13.12-.27.22-.4.34Z"/>
            <path class="cls-7" d="m239.91,87.41c.39-.42.77-.81,1.16-1.2-.6.62-1.03,1.07-1.16,1.2Z"/>
            <path class="cls-2" d="m239.85,87.48h0s.04-.04.06-.07c-.02.02-.04.04-.06.07Z"/>
            <path class="cls-8" d="m257.5,38.31c-32.32,15.37-52.78,34.03-60.8,55.47-4.11,10.99-1.41,23.72,6.89,32.44,5.29,5.56,12,8.51,18.87,8.51,2.47,0,4.96-.38,7.41-1.16.15-.05.29-.1.44-.15,4.07-18.47,7.36-34.76,9.54-45.94-4.44,19.37-10.05,27.23-15.45,28.95-3.53,1.13-6.39-1.15-7.78-2.62-2.93-3.08-5.02-8.52-3.07-13.73,7.89-21.07,32.46-36.39,51.68-45.53,2.99-1.42,5.95-2.75,8.86-3.98l4.3-21.04c-6.68,2.48-13.78,5.4-20.88,8.78Z"/>
            <path class="cls-2" d="m242.33,84.93c-.42.41-.84.84-1.26,1.28.38-.39.8-.82,1.26-1.28Z"/>
            <path class="cls-2" d="m260.63,79.38c.14-.89,1.21-7.23,1.29-8.49-.11,1.14-.87,5.79-.87,5.79-.13.92-.28,1.81-.42,2.7Z"/>
            <path class="cls-2" d="m261.92,70.89s-8.07,3.52-17.07,11.65c2.88-2.58,5.93-4.95,9.16-7.08l7.91-4.58Z"/>
            <path class="cls-7" d="m258.7,89.54c.82-4.26,1.47-7.7,1.93-10.15.14-.89.29-1.78.42-2.7,0,0,.76-4.65.87-5.79l-7.91,4.58c-3.23,2.12-6.28,4.5-9.16,7.08-.84.76-1.68,1.55-2.53,2.38-.46.46-.88.89-1.26,1.28-.39.4-.77.79-1.16,1.2-.02.03-.06.07-.06.07-2.18,11.17-5.47,27.46-9.54,45.94,9.64-3.27,21.69-13.75,28.4-43.88Z"/>
            <path class="cls-2" d="m258.7,89.54c.82-4.26,1.47-7.7,1.93-10.15.14-.89.29-1.78.42-2.7,0,0,.76-4.65.87-5.79l-7.91,4.58c-3.23,2.12-6.28,4.5-9.16,7.08-.84.76-1.68,1.55-2.53,2.38-.46.46-.88.89-1.26,1.28-.39.4-.77.79-1.16,1.2-.02.03-.06.07-.06.07-2.18,11.17-5.47,27.46-9.54,45.94,9.64-3.27,21.69-13.75,28.4-43.88Z"/>
          </g>
        </g>
        <g>
          <path class="cls-5" d="m293.24,140.63c0-.6.3-1.13.91-1.62.62-.49,1.35-.74,2.16-.74.5,0,.95.07,1.32.22.37.14.72.37,1.06.68l.16.15.12-.18c.26-.39.48-.83.66-1.3.18-.49.28-.91.28-1.26,0-.57-.29-1.02-.85-1.33-.53-.29-1.22-.44-2.06-.44s-1.64.21-2.4.63c-.62.34-1.14.78-1.56,1.3-.13-.45-.38-.82-.74-1.1-.46-.35-1.06-.53-1.78-.53-.18,0-.41.01-.7.04l-.17.02v18.21h3.58v-12.74Z"/>
          <path class="cls-5" d="m310.27,134.81c-1.69,0-3.2.38-4.48,1.14-1.29.76-2.31,1.89-3.04,3.35-.73,1.46-1.1,3.15-1.1,5.04,0,3.01.74,5.38,2.2,7.06,1.47,1.69,3.58,2.54,6.27,2.54,1.77,0,3.31-.39,4.58-1.16,1.27-.77,2.27-1.91,2.95-3.39.68-1.47,1.02-3.21,1.02-5.17,0-2.91-.73-5.22-2.18-6.89-1.46-1.67-3.54-2.52-6.21-2.52Zm-.15,16.04c-1.54,0-2.69-.56-3.5-1.7-.82-1.15-1.23-2.79-1.23-4.89,0-1.97.42-3.53,1.25-4.64.82-1.09,2.01-1.65,3.56-1.65,3.16,0,4.7,2.06,4.7,6.29,0,2.17-.41,3.83-1.21,4.94-.79,1.09-1.99,1.65-3.56,1.65Z"/>
          <path class="cls-5" d="m347.15,135.89c-.99-.71-2.27-1.08-3.82-1.08-1.15,0-2.27.21-3.3.64-.96.39-1.79.93-2.45,1.6-.45-.67-1.11-1.2-1.96-1.59-.93-.43-1.95-.64-3.03-.64s-2.21.2-3.21.6c-.89.35-1.66.84-2.31,1.44-.28-1.16-1.12-1.74-2.5-1.74-.21,0-.45.01-.74.04l-.17.02v18.21h3.58v-12.86c0-.56.43-1.11,1.27-1.62.87-.53,1.85-.81,2.89-.81,1.77,0,2.83.58,3.23,1.77.22.63.33,1.54.33,2.7v10.81h3.58v-10.97c0-1.05-.05-1.97-.14-2.74.38-.43.91-.8,1.59-1.1.71-.32,1.43-.48,2.16-.48,1.02,0,1.81.16,2.35.47.53.3.86.77,1.03,1.45.12.36.19.75.2,1.18.01.44.02.9.02,1.38v10.81h3.58v-10.93c0-1.65-.09-2.83-.27-3.52-.29-1.3-.93-2.32-1.93-3.04Z"/>
          <path class="cls-5" d="m356.45,132.51c.41.41.91.62,1.49.62.68,0,1.27-.28,1.73-.82l2.1-2.35,2.1,2.28c.56.59,1.18.89,1.83.89.49,0,.99-.16,1.5-.48l.17-.11-3.61-4.7c-.32-.39-.62-.68-.9-.84-.29-.17-.65-.25-1.06-.25-.79,0-1.47.38-2.04,1.13l-3.43,4.52.11.11Z"/>
          <path class="cls-5" d="m388.18,135.87c-1-.7-2.3-1.05-3.87-1.05-1.2,0-2.34.2-3.38.6-.92.35-1.73.84-2.41,1.45-.12-.51-.38-.92-.77-1.22-.59-.45-1.38-.61-2.44-.49l-.16.02v18.2h3.58v-12.78c0-.4.19-.8.55-1.18.38-.39.92-.72,1.61-.96.7-.24,1.5-.37,2.38-.37.97,0,1.74.16,2.29.47.54.31.9.78,1.09,1.44.15.49.22,1.35.22,2.56v10.81h3.58v-10.93c0-1.65-.09-2.83-.27-3.53-.34-1.32-1.02-2.35-2.02-3.06Z"/>
          <path class="cls-5" d="m399.02,131.86c.99.9,2.33,1.35,3.98,1.35,1.55,0,2.85-.47,3.87-1.39,1.01-.92,1.73-2.28,2.14-4.05l.03-.11-.09-.07c-.39-.3-.87-.45-1.44-.45-.68,0-1.21.43-1.57,1.29-.34.85-.72,1.43-1.13,1.74-.41.3-1.01.46-1.8.46s-1.44-.17-1.88-.49c-.44-.33-.8-.91-1.09-1.73-.28-.84-.78-1.26-1.5-1.26-.22,0-.49.04-.8.12-.36.08-.6.18-.75.3l-.09.07.02.11c.41,1.85,1.12,3.23,2.1,4.13Z"/>
          <path class="cls-5" d="m436.11,153.37h3.51v-24.47c0-1.83-.91-2.76-2.72-2.76-.23,0-.47.01-.7.04l-.16.02v10.24c-1.31-1.08-2.87-1.63-4.66-1.63-1.52,0-2.88.39-4.05,1.17-1.17.77-2.09,1.9-2.73,3.35-.64,1.44-.96,3.2-.96,5.24,0,2.98.68,5.31,2.01,6.93,1.34,1.63,3.25,2.45,5.66,2.45,1.84,0,3.46-.62,4.81-1.84v1.27Zm-4.09-2.52c-3.11,0-4.62-2.18-4.62-6.66,0-1.99.4-3.56,1.18-4.64.78-1.08,1.86-1.61,3.29-1.61.78,0,1.5.13,2.13.38.62.25,1.3.73,2.04,1.44v8.77c0,.59-.38,1.11-1.16,1.58-.8.48-1.76.73-2.86.73Z"/>
          <path class="cls-5" d="m453.43,153.94c2.35,0,4.24-.52,5.64-1.55.6-.46.9-.94.9-1.43,0-.26-.11-.59-.32-1.01-.21-.4-.47-.8-.78-1.18l-.14-.17-.14.17c-1.19,1.39-2.83,2.09-4.85,2.09-1.7,0-3.03-.51-3.93-1.53-.88-.99-1.38-2.41-1.48-4.24h11.92l.03-.15c.08-.44.12-1.15.12-2.15,0-1.56-.29-2.96-.87-4.16-.58-1.21-1.44-2.16-2.55-2.82-1.11-.66-2.46-.99-4.03-.99s-3,.38-4.27,1.12c-1.27.75-2.28,1.83-2.98,3.21-.7,1.38-1.06,3.06-1.06,5,0,3.16.77,5.61,2.28,7.27,1.52,1.67,3.71,2.52,6.53,2.52Zm-.64-16.12c2.65,0,3.96,1.46,4.01,4.48h-8.47c.12-1.35.57-2.43,1.33-3.23.79-.83,1.84-1.25,3.12-1.25Z"/>
          <path class="cls-5" d="m303.54,168.83c-.54,0-1.04.16-1.49.49-.36.26-.63.59-.79.98-1.24-1.18-2.9-1.77-4.91-1.77-1.52,0-2.88.39-4.04,1.17-1.16.77-2.07,1.9-2.7,3.35-.62,1.44-.94,3.2-.94,5.24,0,2.98.68,5.31,2.01,6.93,1.34,1.63,3.25,2.45,5.66,2.45,1.84,0,3.46-.62,4.81-1.84-.01,1.8-.2,3.17-.55,4.06-.36.9-.93,1.55-1.69,1.95-.78.4-1.81.6-3.06.6-.68,0-1.37-.1-2.05-.3-.68-.2-1.34-.48-1.96-.85-.62-.37-1.02-.66-1.18-.86l-.13-.17-.15.16c-.85.93-1.26,1.65-1.26,2.2,0,.32.11.62.32.9.21.27.54.55,1.02.84,1.46.79,3.27,1.2,5.38,1.2s3.76-.34,5.06-1.02c1.31-.69,2.27-1.76,2.86-3.19.59-1.42.88-3.33.88-5.69v-16.72l-.15-.03c-.26-.05-.59-.08-.98-.08Zm-6.47,15.74c-3.11,0-4.62-2.18-4.62-6.66,0-1.99.4-3.56,1.18-4.64.78-1.08,1.86-1.61,3.29-1.61,1.58,0,2.98.61,4.17,1.82v8.78c0,.58-.39,1.12-1.16,1.58-.8.48-1.76.73-2.86.73Z"/>
          <path class="cls-5" d="m314.53,184.98c-.15-.16-.33-.54-.33-1.48v-12.03c0-1.83-.91-2.76-2.72-2.76-.23,0-.47.01-.7.04l-.16.02v14.47c0,1.2.11,2.03.34,2.55.23.53.58.92,1.05,1.17.45.24,1.04.36,1.75.36.87,0,1.59-.09,2.14-.27l.13-.04v-1.68h-.18c-.65,0-1.09-.11-1.31-.34Z"/>
          <path class="cls-5" d="m312.28,165.52c.63,0,1.16-.22,1.59-.64.42-.42.64-.96.64-1.59,0-.68-.21-1.24-.64-1.68-.43-.44-.96-.66-1.59-.66s-1.16.22-1.59.66c-.42.44-.64,1-.64,1.68,0,.63.22,1.16.64,1.59.42.42.96.64,1.59.64Z"/>
          <path class="cls-5" d="m344.01,169.6c-.99-.71-2.27-1.07-3.82-1.07-1.15,0-2.27.21-3.3.64-.96.39-1.78.93-2.45,1.6-.45-.67-1.11-1.2-1.96-1.59-.93-.42-1.95-.64-3.03-.64s-2.21.2-3.21.6c-.89.35-1.66.84-2.31,1.44-.28-1.16-1.12-1.74-2.5-1.74-.21,0-.45.01-.74.04l-.17.02v18.21h3.58v-12.86c0-.56.43-1.11,1.27-1.62.88-.53,1.85-.81,2.89-.81,1.77,0,2.83.58,3.23,1.77.22.63.33,1.54.33,2.7v10.81h3.58v-10.97c0-1.05-.05-1.97-.14-2.74.38-.43.91-.8,1.59-1.1.71-.32,1.43-.48,2.16-.48,1.02,0,1.81.16,2.35.47.53.31.86.78,1.03,1.45.12.36.19.75.2,1.18.01.44.02.9.02,1.38v10.81h3.58v-10.93c0-1.65-.09-2.83-.27-3.52-.29-1.3-.93-2.32-1.93-3.04Z"/>
          <path class="cls-5" d="m365.21,169.58c-1-.7-2.3-1.05-3.87-1.05-1.2,0-2.34.2-3.38.6-.92.35-1.73.84-2.41,1.45-.12-.51-.38-.92-.77-1.22-.59-.45-1.38-.61-2.44-.49l-.16.02v18.2h3.58v-12.78c0-.41.18-.79.55-1.18.38-.39.92-.72,1.61-.96.7-.24,1.5-.37,2.38-.37.97,0,1.74.16,2.29.47.54.31.9.78,1.09,1.44.15.49.22,1.35.22,2.56v10.81h3.58v-10.93c0-1.65-.09-2.83-.27-3.53-.34-1.32-1.02-2.35-2.02-3.06Z"/>
          <path class="cls-5" d="m402.62,177.33c-.83-.49-2-.91-3.47-1.27-1.05-.25-1.82-.49-2.31-.73-.47-.22-.81-.48-1.01-.77-.19-.28-.29-.61-.29-.97,0-.67.27-1.17.82-1.53.57-.37,1.37-.56,2.36-.56.83,0,1.66.18,2.46.53.8.35,1.44.81,1.9,1.37l.06.07s1.48-.96,1.51-2.27c.01-.58-.45-1.12-1.38-1.63-.52-.31-1.2-.57-2.02-.76-.82-.19-1.7-.29-2.61-.29-1.9,0-3.49.48-4.73,1.42-1.25.95-1.89,2.24-1.89,3.83,0,1.43.46,2.6,1.36,3.48.89.87,2.37,1.52,4.38,1.96,1.48.32,2.49.71,3.02,1.15.52.43.77,1,.77,1.73,0,.83-.29,1.44-.87,1.88-.6.44-1.46.66-2.58.66-.86,0-1.73-.17-2.58-.5-.86-.33-1.64-.8-2.33-1.39l-.16-.14-.11.18c-.39.62-.64,1.08-.77,1.41-.13.33-.2.64-.2.92,0,.69.59,1.27,1.81,1.76,1.1.49,2.53.73,4.24.73,2.08,0,3.79-.53,5.11-1.57,1.33-1.05,2-2.47,2-4.21,0-1.01-.2-1.9-.61-2.64-.41-.75-1.04-1.37-1.88-1.87Z"/>
          <path class="cls-5" d="m418.46,182.78l-.14.2c-.12.16-.34.38-.68.64-.34.27-.71.49-1.11.66-.39.17-.79.25-1.2.25-1.53,0-2.28-.95-2.28-2.92v-9.58h5.64v-3.09h-5.64v-2.73c0-1.83-.91-2.76-2.72-2.76-.23,0-.47.01-.7.04l-.16.02v17.87c0,1.48.13,2.59.39,3.32.71,1.96,2.38,2.96,4.98,2.96.82,0,1.59-.1,2.3-.31.71-.21,1.33-.51,1.82-.9.53-.42.79-.83.79-1.24,0-.55-.37-1.28-1.14-2.23l-.15-.19Z"/>
          <path class="cls-5" d="m425.4,165.52c.63,0,1.16-.22,1.59-.64.42-.42.64-.96.64-1.59,0-.68-.21-1.24-.64-1.68-.43-.44-.96-.66-1.59-.66s-1.16.22-1.59.66c-.42.44-.64,1-.64,1.68,0,.63.22,1.16.64,1.59.42.42.96.64,1.59.64Z"/>
          <path class="cls-5" d="m427.65,184.98c-.15-.16-.33-.54-.33-1.48v-12.03c0-1.83-.91-2.76-2.72-2.76-.23,0-.47.01-.7.04l-.16.02v14.47c0,1.2.11,2.03.34,2.55.23.53.58.92,1.05,1.17.45.24,1.04.36,1.75.36.87,0,1.59-.09,2.14-.27l.13-.04v-1.68h-.18c-.65,0-1.09-.11-1.31-.34Z"/>
          <path class="cls-5" d="m446.11,182.36l-.13.16c-.29.36-.68.7-1.18,1.03-.9.68-1.94,1.02-3.11,1.02-1.7,0-3.03-.57-3.94-1.69-.93-1.13-1.4-2.77-1.4-4.86s.46-3.56,1.36-4.67c.89-1.1,2.19-1.65,3.87-1.65.88,0,1.66.16,2.34.47.68.32,1.33.83,1.94,1.54l.05.06s1.63-.82,1.59-2.19c-.01-.48-.29-.98-.86-1.46-.55-.47-1.28-.85-2.18-1.15-.9-.29-1.92-.44-3.05-.44-1.54,0-3.01.38-4.38,1.14-1.37.76-2.46,1.85-3.23,3.25-.77,1.4-1.16,3.12-1.16,5.14s.34,3.79,1,5.2c.67,1.43,1.67,2.53,2.99,3.28,1.31.74,2.85,1.12,4.59,1.12,1.17,0,2.25-.14,3.19-.42.96-.28,1.72-.68,2.26-1.17.58-.49.86-.94.86-1.35,0-.61-.43-1.33-1.3-2.21l-.14-.14Z"/>
          <path class="cls-5" d="m458.46,164.33c-.81,0-1.44-.17-1.88-.49-.44-.33-.8-.91-1.09-1.73-.28-.84-.78-1.26-1.5-1.26-.22,0-.48.04-.8.12-.36.08-.6.18-.75.3l-.09.07.02.11c.41,1.85,1.12,3.23,2.1,4.12.99.9,2.33,1.35,3.98,1.35,1.55,0,2.85-.47,3.87-1.39,1.01-.92,1.73-2.28,2.14-4.05l.03-.11-.09-.07c-.38-.3-.87-.46-1.44-.46-.68,0-1.21.43-1.57,1.29-.34.85-.72,1.43-1.13,1.74-.41.3-1.01.46-1.8.46Z"/>
          <path class="cls-5" d="m293.94,98.44h6.36v-3.13h-6.36v-2.28c0-1.36.28-2.37.83-3,.54-.62,1.41-.94,2.59-.94,1.42,0,2.61.56,3.53,1.67l.06.07s1.71-.65,1.71-2.15c0-.41-.26-.83-.78-1.28-.49-.42-1.16-.76-1.97-1.04-.81-.27-1.73-.41-2.73-.41-2.21,0-3.92.66-5.07,1.95-1.15,1.29-1.73,3.18-1.73,5.61v19.93h3.58v-15.02Z"/>
          <path class="cls-5" d="m304.45,111.51c1.52,1.67,3.71,2.52,6.53,2.52,2.35,0,4.24-.52,5.64-1.55.6-.46.9-.94.9-1.43,0-.26-.11-.59-.32-1.01-.21-.4-.47-.8-.78-1.18l-.14-.17-.14.17c-1.19,1.39-2.83,2.09-4.85,2.09-1.7,0-3.03-.51-3.93-1.53-.88-.99-1.38-2.41-1.48-4.24h11.92l.03-.15c.08-.44.12-1.15.12-2.15,0-1.56-.29-2.96-.87-4.16-.58-1.21-1.44-2.16-2.55-2.82-1.11-.66-2.46-.99-4.03-.99s-3,.38-4.27,1.12c-1.27.75-2.28,1.83-2.98,3.21-.7,1.38-1.06,3.06-1.06,5,0,3.16.77,5.61,2.28,7.27Zm5.89-13.6c2.65,0,3.96,1.46,4.01,4.48h-8.47c.12-1.35.57-2.43,1.33-3.23.79-.83,1.84-1.25,3.12-1.25Z"/>
          <path class="cls-5" d="m329.44,114.03c1.84,0,3.46-.62,4.81-1.84v1.27h3.51v-24.47c0-1.83-.91-2.76-2.72-2.76-.23,0-.47.01-.7.04l-.16.02v10.24c-1.31-1.08-2.87-1.63-4.66-1.63-1.52,0-2.88.39-4.05,1.17-1.17.77-2.09,1.9-2.73,3.35-.64,1.44-.96,3.2-.96,5.24,0,2.98.68,5.31,2.01,6.93,1.34,1.63,3.25,2.45,5.66,2.45Zm4.74-5.4c0,.59-.38,1.11-1.16,1.58-.8.48-1.76.73-2.86.73-3.11,0-4.62-2.18-4.62-6.66,0-1.99.4-3.56,1.18-4.64.78-1.08,1.86-1.61,3.29-1.61.78,0,1.5.13,2.13.38.62.25,1.3.73,2.04,1.44v8.77Z"/>
          <path class="cls-5" d="m358.11,111.05c0-.26-.11-.59-.32-1.01-.21-.4-.47-.8-.78-1.18l-.14-.17-.14.17c-1.19,1.39-2.83,2.09-4.85,2.09-1.7,0-3.03-.51-3.93-1.53-.88-.99-1.38-2.41-1.48-4.24h11.92l.03-.15c.08-.44.12-1.15.12-2.15,0-1.56-.29-2.96-.87-4.16-.58-1.21-1.44-2.16-2.55-2.82-1.11-.66-2.46-.99-4.03-.99s-3,.38-4.27,1.12c-1.27.75-2.28,1.83-2.98,3.21-.7,1.38-1.06,3.06-1.06,5,0,3.16.77,5.61,2.28,7.27,1.52,1.67,3.71,2.52,6.53,2.52,2.35,0,4.24-.52,5.64-1.55.6-.46.9-.94.9-1.43Zm-7.18-13.13c2.65,0,3.96,1.46,4.01,4.48h-8.47c.12-1.35.57-2.43,1.33-3.23.79-.83,1.84-1.25,3.12-1.25Z"/>
          <path class="cls-5" d="m372.52,99.41l.12-.18c.26-.39.48-.83.66-1.3.18-.49.28-.91.28-1.26,0-.57-.29-1.02-.85-1.33-.53-.29-1.22-.44-2.06-.44s-1.64.21-2.4.63c-.62.34-1.14.78-1.56,1.3-.13-.45-.38-.82-.74-1.1-.46-.35-1.06-.53-1.78-.53-.18,0-.41.01-.7.04l-.17.02v18.21h3.58v-12.74c0-.6.3-1.13.91-1.62.62-.49,1.35-.74,2.16-.74.5,0,.95.07,1.32.22.37.14.72.37,1.06.68l.16.15Z"/>
          <path class="cls-5" d="m392.76,113.37v-1.83h-.18c-.77,0-1.08-.1-1.21-.18-.17-.11-.29-.33-.36-.64-.07-.35-.11-.88-.11-1.57v-7.45c0-2.44-.55-4.2-1.65-5.24-1.09-1.04-2.86-1.56-5.27-1.56-1.02,0-2.05.11-3.08.33-1.04.22-1.91.52-2.61.91-.74.41-1.12.87-1.12,1.37,0,.25.05.58.22.97.31.73,1.12,1.18,1.12,1.18l.05-.03c.84-.59,1.65-1.01,2.43-1.24.77-.23,1.65-.35,2.61-.35,1.33,0,2.31.25,2.89.75.57.49.86,1.35.86,2.55v.37c-.32-.02-.78-.03-1.41-.03-3.1.1-5.54.72-7.26,1.83-1.75,1.13-2.64,2.75-2.64,4.83,0,1.76.52,3.13,1.55,4.07,1.03.94,2.47,1.41,4.3,1.41,1.2,0,2.29-.18,3.22-.54.85-.32,1.65-.84,2.41-1.54.3,1.31,1.37,1.97,3.19,1.97.72,0,1.37-.09,1.91-.27l.13-.04Zm-5.36-8.88v3.68c0,.33-.21.7-.63,1.12-.43.43-1.03.8-1.77,1.09-.75.29-1.53.44-2.34.44-1.01,0-1.77-.23-2.28-.69-.5-.45-.75-1.13-.75-2,0-1.2.56-2.08,1.7-2.7,1.17-.63,2.9-.94,5.15-.94h.91Z"/>
          <path class="cls-5" d="m436.69,113.37v-1.83h-.18c-.77,0-1.08-.1-1.21-.18-.17-.11-.29-.33-.36-.64-.07-.35-.11-.88-.11-1.57v-7.45c0-2.44-.55-4.2-1.65-5.24-1.09-1.04-2.86-1.56-5.27-1.56-1.02,0-2.05.11-3.08.33-1.04.22-1.91.52-2.61.91-.74.41-1.12.87-1.12,1.37,0,.25.05.58.22.97.31.73,1.12,1.18,1.12,1.18l.05-.03c.84-.59,1.65-1.01,2.43-1.24.77-.23,1.65-.35,2.61-.35,1.33,0,2.31.25,2.89.75.57.49.86,1.35.86,2.55v.37c-.32-.02-.78-.03-1.41-.03-3.1.1-5.54.72-7.26,1.83-1.75,1.13-2.64,2.75-2.64,4.83,0,1.76.52,3.13,1.55,4.07,1.03.94,2.47,1.41,4.3,1.41,1.2,0,2.29-.18,3.22-.54.85-.32,1.65-.84,2.41-1.54.3,1.31,1.37,1.97,3.19,1.97.72,0,1.37-.09,1.91-.27l.13-.04Zm-5.36-8.88v3.68c0,.33-.21.7-.63,1.12-.43.43-1.03.8-1.77,1.09-.75.29-1.53.44-2.34.44-1.01,0-1.77-.23-2.28-.69-.5-.45-.75-1.13-.75-2,0-1.2.56-2.08,1.7-2.7,1.17-.63,2.9-.94,5.15-.94h.91Z"/>
          <path class="cls-5" d="m411.96,153.29v-1.83h-.18c-.77,0-1.08-.1-1.21-.18-.17-.11-.29-.33-.36-.64-.07-.35-.11-.88-.11-1.57v-7.45c0-2.44-.55-4.2-1.65-5.24-1.09-1.04-2.86-1.56-5.27-1.56-1.02,0-2.05.11-3.08.33-1.04.22-1.91.52-2.61.91-.74.41-1.12.87-1.12,1.37,0,.25.05.58.22.97.31.73,1.12,1.18,1.12,1.18l.05-.03c.84-.59,1.65-1.01,2.43-1.24.77-.23,1.65-.35,2.61-.35,1.33,0,2.31.25,2.89.75.57.49.86,1.35.86,2.55v.37c-.32-.02-.78-.03-1.41-.03-3.1.1-5.54.72-7.26,1.83-1.75,1.13-2.64,2.75-2.64,4.83,0,1.76.52,3.13,1.55,4.07,1.03.94,2.47,1.41,4.3,1.41,1.2,0,2.29-.18,3.22-.54.85-.32,1.65-.84,2.41-1.54.3,1.31,1.37,1.97,3.19,1.97.72,0,1.37-.09,1.91-.27l.13-.04Zm-5.36-8.88v3.68c0,.33-.21.7-.63,1.12-.43.43-1.03.8-1.77,1.09-.75.29-1.53.44-2.34.44-1.01,0-1.77-.23-2.28-.69-.5-.45-.75-1.13-.75-2,0-1.2.56-2.08,1.7-2.7,1.17-.63,2.9-.94,5.15-.94h.91Z"/>
          <path class="cls-5" d="m467.42,187v-1.83h-.18c-.77,0-1.08-.1-1.21-.18-.17-.11-.29-.33-.36-.64-.07-.35-.11-.88-.11-1.57v-7.45c0-2.44-.55-4.2-1.65-5.24-1.09-1.04-2.86-1.56-5.27-1.56-1.02,0-2.05.11-3.08.33-1.04.22-1.91.52-2.61.91-.74.41-1.12.87-1.12,1.37,0,.25.05.58.22.97.31.73,1.12,1.18,1.12,1.18l.05-.03c.84-.59,1.65-1.01,2.43-1.24.77-.23,1.65-.35,2.61-.35,1.33,0,2.31.25,2.89.75.57.49.86,1.35.86,2.55v.37c-.32-.02-.78-.03-1.41-.03-3.1.1-5.54.72-7.26,1.83-1.75,1.13-2.64,2.75-2.64,4.83,0,1.76.52,3.13,1.55,4.07,1.03.94,2.47,1.41,4.3,1.41,1.2,0,2.29-.18,3.22-.54.85-.32,1.65-.84,2.41-1.54.3,1.31,1.37,1.97,3.19,1.97.72,0,1.37-.09,1.91-.27l.13-.04Zm-5.36-8.88v3.68c0,.33-.21.7-.63,1.12-.43.43-1.03.8-1.77,1.09-.75.29-1.53.44-2.34.44-1.01,0-1.77-.23-2.28-.69-.5-.45-.75-1.13-.75-2,0-1.2.56-2.08,1.7-2.7,1.17-.63,2.9-.94,5.15-.94h.91Z"/>
          <path class="cls-5" d="m370.84,153.29v-1.83h-.18c-.77,0-1.08-.1-1.21-.18-.17-.11-.29-.33-.36-.64-.07-.35-.11-.88-.11-1.57v-7.45c0-2.44-.55-4.2-1.65-5.24-1.09-1.04-2.86-1.56-5.27-1.56-1.02,0-2.05.11-3.08.33-1.04.22-1.91.52-2.61.91-.74.41-1.12.87-1.12,1.37,0,.25.05.58.22.97.31.73,1.12,1.18,1.12,1.18l.05-.03c.84-.59,1.65-1.01,2.43-1.24.77-.23,1.65-.35,2.61-.35,1.33,0,2.31.25,2.89.75.57.49.86,1.35.86,2.55v.37c-.32-.02-.78-.03-1.41-.03-3.1.1-5.54.72-7.26,1.83-1.75,1.13-2.64,2.75-2.64,4.83,0,1.76.52,3.13,1.55,4.07,1.03.94,2.47,1.41,4.3,1.41,1.2,0,2.29-.18,3.22-.54.85-.32,1.65-.84,2.41-1.54.3,1.31,1.37,1.97,3.19,1.97.72,0,1.37-.09,1.91-.27l.13-.04Zm-5.36-8.88v3.68c0,.33-.21.7-.63,1.12-.43.43-1.03.8-1.77,1.09-.75.29-1.53.44-2.34.44-1.01,0-1.77-.23-2.28-.69-.5-.45-.75-1.13-.75-2,0-1.2.56-2.08,1.7-2.7,1.17-.63,2.9-.94,5.15-.94h.91Z"/>
          <path class="cls-5" d="m389,187v-1.83h-.18c-.77,0-1.08-.1-1.21-.18-.17-.11-.29-.33-.36-.64-.07-.35-.11-.88-.11-1.57v-7.45c0-2.44-.55-4.2-1.65-5.24-1.09-1.04-2.86-1.56-5.27-1.56-1.02,0-2.05.11-3.08.33-1.04.22-1.91.52-2.61.91-.74.41-1.12.87-1.12,1.37,0,.25.05.58.22.97.31.73,1.12,1.18,1.12,1.18l.05-.03c.84-.59,1.65-1.01,2.43-1.24.77-.23,1.65-.35,2.61-.35,1.33,0,2.31.25,2.89.75.57.49.86,1.35.86,2.55v.37c-.32-.02-.78-.03-1.41-.03-3.1.1-5.54.72-7.26,1.83-1.75,1.13-2.64,2.75-2.64,4.83,0,1.76.52,3.13,1.55,4.07,1.03.94,2.47,1.41,4.3,1.41,1.2,0,2.29-.18,3.22-.54.85-.32,1.65-.84,2.41-1.54.3,1.31,1.37,1.97,3.19,1.97.72,0,1.37-.09,1.91-.27l.13-.04Zm-5.36-8.88v3.68c0,.33-.21.7-.63,1.12-.43.43-1.03.8-1.77,1.09-.75.29-1.53.44-2.34.44-1.01,0-1.77-.23-2.28-.69-.5-.45-.75-1.13-.75-2,0-1.2.56-2.08,1.7-2.7,1.17-.63,2.9-.94,5.15-.94h.91Z"/>
          <path class="cls-5" d="m402.38,114.03c.82,0,1.59-.1,2.3-.31.71-.21,1.33-.51,1.82-.9.53-.42.79-.83.79-1.24,0-.55-.37-1.28-1.14-2.23l-.15-.19-.14.2c-.12.16-.35.38-.68.64-.34.27-.71.49-1.11.66-.39.17-.79.25-1.2.25-1.53,0-2.28-.95-2.28-2.92v-9.58h5.64v-3.09h-5.64v-2.73c0-1.83-.91-2.76-2.72-2.76-.23,0-.47.01-.7.04l-.16.02v17.87c0,1.48.13,2.59.39,3.32.71,1.96,2.38,2.96,4.98,2.96Z"/>
          <path class="cls-5" d="m400.43,116.05c-.34.27-.65.74-.94,1.43l-1.8,4.35.14.08c.14.09.33.15.58.21.24.05.46.08.64.08.85,0,1.5-.39,1.94-1.16l2.67-4.94-.18-.08c-.58-.26-1.15-.39-1.7-.39s-1,.14-1.34.42Z"/>
          <path class="cls-5" d="m412.93,91.9c.63,0,1.16-.21,1.59-.64.42-.43.64-.96.64-1.59,0-.68-.21-1.24-.64-1.68-.43-.44-.96-.66-1.59-.66s-1.16.22-1.59.66c-.42.44-.64,1-.64,1.68,0,.63.22,1.16.64,1.59.42.42.96.64,1.59.64Z"/>
          <path class="cls-5" d="m414.86,97.84c0-1.83-.91-2.76-2.72-2.76-.23,0-.46.01-.7.04l-.16.02v14.47c0,1.2.11,2.03.34,2.55.23.53.58.92,1.05,1.17.45.24,1.04.36,1.75.36.87,0,1.59-.09,2.14-.27l.13-.04v-1.68h-.18c-.65,0-1.09-.11-1.31-.34-.15-.16-.33-.54-.33-1.48v-12.03Z"/>
        </g>
      </g>
    </g>
  </g>
</svg>