<?xml version="1.0" encoding="utf-8"?>
<!-- Generator: Adobe Illustrator 28.0.0, SVG Export Plug-In . SVG Version: 6.00 Build 0)  -->
<svg version="1.1" id="Layer_1" xmlns:serif="http://www.serif.com/"
	 xmlns="http://www.w3.org/2000/svg" xmlns:xlink="http://www.w3.org/1999/xlink" x="0px" y="0px" viewBox="0 0 1920 1080"
	 style="enable-background:new 0 0 1920 1080;" xml:space="preserve">
<style type="text/css">
	.st0{fill-rule:evenodd;clip-rule:evenodd;fill-opacity:0;}
	.st1{fill:#0083C4;fill-opacity:0.85;}
</style>
<g>
	<rect x="393" class="st0" width="1095.3" height="1076.3"/>
	<path class="st1" d="M1468.8,538.4c0,294.2-243.6,537.9-537.9,537.9c-293.8,0-537.9-243.6-537.9-537.9
		C393,244.7,636.6,0.5,930.4,0.5C1224.6,0.5,1468.8,244.7,1468.8,538.4z M1000.5,639.1c56.4-0.5,145,29.5,145,71.7
		c0,46.9-89.6,81.8-214.6,81.8c-125.5,0-214.1-34.3-214.1-81.8c0-42.2,88.1-72.3,144.5-71.7V589c-81.8-0.5-210.9,46.9-210.9,128.7
		c0,67,103.8,128.7,280.5,128.7c176.6,0,280.5-61.7,280.5-128.7c0-81.8-129.2-129.2-210.9-128.7V639.1z M817.5,311.6
		c0,51.7,34.8,96,82.8,110.3v182.4c0,86.5,14.7,135.5,30.6,135.5c16.4,0,31.1-48.5,31.1-135.5V421.9c47.5-14.3,82.2-58.5,82.2-110.3
		c0-62.7-50.1-113.3-113.3-113.3C867.6,198.3,817.5,248.9,817.5,311.6z M936.2,280c0,20.5-16.4,37.4-36.9,37.4
		c-18.5,0-36.4-16.9-36.4-37.4c0-20.1,17.9-36.4,36.4-36.4C919.8,243.6,936.2,260,936.2,280z"/>
	<path class="st1" d="M1468.8,538.4c0,294.2-243.6,537.9-537.9,537.9c-293.8,0-537.9-243.6-537.9-537.9
		C393,244.7,636.6,0.5,930.4,0.5C1224.6,0.5,1468.8,244.7,1468.8,538.4z M1000.5,639.1c56.4-0.5,145,29.5,145,71.7
		c0,46.9-89.6,81.8-214.6,81.8c-125.5,0-214.1-34.3-214.1-81.8c0-42.2,88.1-72.3,144.5-71.7V589c-81.8-0.5-210.9,46.9-210.9,128.7
		c0,67,103.8,128.7,280.5,128.7c176.6,0,280.5-61.7,280.5-128.7c0-81.8-129.2-129.2-210.9-128.7V639.1z M817.5,311.6
		c0,51.7,34.8,96,82.8,110.3v182.4c0,86.5,14.7,135.5,30.6,135.5c16.4,0,31.1-48.5,31.1-135.5V421.9c47.5-14.3,82.2-58.5,82.2-110.3
		c0-62.7-50.1-113.3-113.3-113.3C867.6,198.3,817.5,248.9,817.5,311.6z M936.2,280c0,20.5-16.4,37.4-36.9,37.4
		c-18.5,0-36.4-16.9-36.4-37.4c0-20.1,17.9-36.4,36.4-36.4C919.8,243.6,936.2,260,936.2,280z"/>
</g>
</svg>
