<?xml version="1.0" encoding="utf-8"?>
<!-- Generator: Adobe Illustrator 28.0.0, SVG Export Plug-In . SVG Version: 6.00 Build 0)  -->
<svg version="1.1" id="Layer_1" xmlns="http://www.w3.org/2000/svg" xmlns:xlink="http://www.w3.org/1999/xlink" x="0px" y="0px"
	 viewBox="0 0 20.3 19.9" style="enable-background:new 0 0 20.3 19.9;" xml:space="preserve">
<style type="text/css">
	.st0{fill:#0083C4;fill-opacity:0;}
	.st1{fill:#0083C4;fill-opacity:0.85;}
</style>
<g>
	<rect class="st0" width="20.3" height="19.9"/>
	<path class="st1" d="M19.9,10c0,5.4-4.5,10-10,10c-5.4,0-10-4.5-10-10C0,4.5,4.5,0,10,0C15.4,0,19.9,4.5,19.9,10z M10.9,10.9
		c-0.3,0.3-0.6,0.4-0.9,0.4c-0.3,0-0.6-0.1-0.9-0.4l-0.7-0.6L4.6,14c0.2,0.1,0.5,0.2,0.8,0.2h9.2c0.4,0,0.6-0.1,0.8-0.2l-3.8-3.8
		L10.9,10.9z M4,7.2v5.5c0,0.3,0,0.5,0.1,0.7l3.6-3.7L4.1,6.5C4,6.7,4,6.9,4,7.2z M12.2,9.8l3.7,3.7c0.1-0.2,0.1-0.4,0.1-0.7V7.2
		c0-0.3-0.1-0.6-0.1-0.7L12.2,9.8z M5.5,5.7c-0.4,0-0.7,0.1-1,0.2l5,4.4c0.1,0.1,0.3,0.2,0.5,0.2s0.3-0.1,0.5-0.2l5-4.4
		c-0.3-0.2-0.6-0.2-1-0.2C14.5,5.7,5.5,5.7,5.5,5.7z"/>
</g>
<g>
	<rect class="st0" width="20.3" height="19.9"/>
	<path class="st1" d="M19.9,10c0,5.4-4.5,10-10,10c-5.4,0-10-4.5-10-10C0,4.5,4.5,0,10,0C15.4,0,19.9,4.5,19.9,10z M10.9,10.9
		c-0.3,0.3-0.6,0.4-0.9,0.4c-0.3,0-0.6-0.1-0.9-0.4l-0.7-0.6L4.6,14c0.2,0.1,0.5,0.2,0.8,0.2h9.2c0.4,0,0.6-0.1,0.8-0.2l-3.8-3.8
		L10.9,10.9z M4,7.2v5.5c0,0.3,0,0.5,0.1,0.7l3.6-3.7L4.1,6.5C4,6.7,4,6.9,4,7.2z M12.2,9.8l3.7,3.7c0.1-0.2,0.1-0.4,0.1-0.7V7.2
		c0-0.3-0.1-0.6-0.1-0.7L12.2,9.8z M5.5,5.7c-0.4,0-0.7,0.1-1,0.2l5,4.4c0.1,0.1,0.3,0.2,0.5,0.2s0.3-0.1,0.5-0.2l5-4.4
		c-0.3-0.2-0.6-0.2-1-0.2C14.5,5.7,5.5,5.7,5.5,5.7z"/>
</g>
</svg>
